<svg width="413.6" height="80" viewBox="0 0 413.6 80" xmlns="http://www.w3.org/2000/svg"><g id="svgGroup" stroke-linecap="round" fill-rule="evenodd" font-size="9pt" stroke="#ffffff" stroke-width="0.05mm" fill="#000000" style="stroke:#ffffff;stroke-width:0.05mm;fill:#000000"><path d="M 20.4 5.52 L 33.44 43.84 L 40.08 20.8 L 35.28 5.52 L 30.72 5.52 L 30.72 4 L 55.52 4 L 55.52 5.52 L 50.8 5.52 L 62.72 43.36 L 72.32 5.52 L 64.24 5.52 L 64.24 4 L 80.24 4 L 80.24 5.52 L 74.96 5.52 L 60.24 60.8 L 53.12 60.8 L 41.28 24.64 L 30.88 60.8 L 23.92 60.8 L 3.76 5.52 L 0 5.52 L 0 4 L 26 4 L 26 5.52 L 20.4 5.52 Z M 413.6 60 L 391.36 60 L 391.36 58.56 L 395.04 58.56 L 386 40 L 384.48 40.4 L 384.48 58.56 L 388.16 58.56 L 388.16 60 L 365.2 60 L 365.2 58.56 L 369.6 58.56 L 369.6 1.44 L 364.88 1.44 L 364.88 0 L 384.48 0 L 384.48 38.8 L 385.76 38.32 L 403.76 23.36 L 396.24 23.36 L 396.24 21.92 L 412 21.92 L 412 23.36 L 406.4 23.36 L 396.88 31.44 L 410.72 58.56 L 413.6 58.56 L 413.6 60 Z M 276.24 23.36 L 272.96 23.36 L 272.96 21.92 L 296.16 21.92 L 296.16 23.36 L 291.84 23.36 L 300.56 49.92 L 309.84 23.36 L 304.48 23.36 L 304.48 21.92 L 315.76 21.92 L 315.76 23.36 L 311.76 23.36 L 296.8 66.48 Q 294.459 73.148 291.615 76.262 A 11.598 11.598 0 0 1 290.88 77 A 11.359 11.359 0 0 1 283.21 79.996 A 14.617 14.617 0 0 1 282.88 80 A 16.673 16.673 0 0 1 279.903 79.751 Q 278.236 79.448 276.909 78.777 A 8.575 8.575 0 0 1 275.44 77.84 A 7.387 7.387 0 0 1 273.584 75.726 A 6.744 6.744 0 0 1 272.72 72.32 A 10.248 10.248 0 0 1 272.901 70.332 Q 273.284 68.396 274.48 67.2 A 5.907 5.907 0 0 1 277.832 65.537 A 8.273 8.273 0 0 1 279.12 65.44 A 11.67 11.67 0 0 1 281.585 65.677 Q 285.165 66.454 285.675 69.783 A 7.774 7.774 0 0 1 285.76 70.96 Q 285.76 71.855 285.493 73.018 A 16.237 16.237 0 0 1 285.28 73.84 L 282.48 73.84 A 7.57 7.57 0 0 0 282.25 74.63 Q 282.012 75.664 282.191 76.46 A 2.738 2.738 0 0 0 282.32 76.88 A 1.781 1.781 0 0 0 283.588 77.974 Q 283.932 78.067 284.357 78.078 A 4.521 4.521 0 0 0 284.48 78.08 A 6.502 6.502 0 0 0 288.541 76.634 Q 289.441 75.938 290.267 74.907 A 13.144 13.144 0 0 0 290.32 74.84 Q 292.88 71.6 295.2 64.96 L 296.96 60 L 289.92 60 L 276.24 23.36 Z M 316.08 23.36 L 316.08 21.92 L 335.36 21.92 L 335.36 29.28 A 14.659 14.659 0 0 1 337.096 25.788 A 12.245 12.245 0 0 1 339.28 23.36 Q 341.92 21.12 347.28 21.12 A 16.467 16.467 0 0 1 352.337 21.83 Q 357.672 23.551 359.131 29.449 A 21.014 21.014 0 0 1 359.68 34.48 L 359.68 58.56 L 364.16 58.56 L 364.16 60 L 341.52 60 L 341.52 58.56 L 344.8 58.56 L 344.8 32.56 Q 344.8 27.76 344.16 26.36 A 2.394 2.394 0 0 0 343.493 25.473 Q 342.857 24.96 341.84 24.96 A 4.001 4.001 0 0 0 339.342 25.867 Q 338.262 26.706 337.32 28.32 A 13.953 13.953 0 0 0 335.709 32.686 A 19.599 19.599 0 0 0 335.36 36.48 L 335.36 58.56 L 338.8 58.56 L 338.8 60 L 316.08 60 L 316.08 58.56 L 320.48 58.56 L 320.48 23.36 L 316.08 23.36 Z M 230.56 5.76 L 230.56 4 L 259.36 4 L 259.36 5.76 L 250.88 5.76 L 250.88 58.24 L 253.76 58.24 A 17.998 17.998 0 0 0 258.472 57.655 A 13.17 13.17 0 0 0 264.6 54.08 A 29.392 29.392 0 0 0 267.328 50.779 Q 270.037 47.018 272.8 41.28 L 274.48 41.28 L 272.96 60 L 230.56 60 L 230.56 58.24 L 235.28 58.24 L 235.28 5.76 L 230.56 5.76 Z M 227.6 60 L 209.84 60 L 208.96 54.4 A 9.781 9.781 0 0 1 202.065 60.318 A 16.539 16.539 0 0 1 197.92 60.8 Q 191.04 60.8 187.24 55.84 A 15.939 15.939 0 0 1 184.815 51.113 Q 184.085 48.906 183.742 46.201 A 41.2 41.2 0 0 1 183.44 41.04 A 36.767 36.767 0 0 1 184.094 33.769 Q 186.379 22.494 196.656 21.269 A 22.176 22.176 0 0 1 199.28 21.12 Q 203.02 21.12 205.405 22.226 A 6.808 6.808 0 0 1 208.56 25.04 L 208.56 1.44 L 203.68 1.44 L 203.68 0 L 223.68 0 L 223.68 58.56 L 227.6 58.56 L 227.6 60 Z M 137.84 37.12 L 137.84 58.56 L 143.52 58.56 L 143.52 60 L 118.56 60 L 118.56 58.56 L 122.96 58.56 L 122.96 23.36 L 118.56 23.36 L 118.56 21.92 L 137.84 21.92 L 137.84 29.6 Q 138.88 25.52 141.84 23.32 Q 144.8 21.12 148.56 21.12 A 10.892 10.892 0 0 1 151.284 21.443 A 7.977 7.977 0 0 1 154.68 23.24 A 6.896 6.896 0 0 1 156.81 26.987 A 10.414 10.414 0 0 1 157.04 29.24 Q 157.04 33.12 155.28 35.2 A 5.53 5.53 0 0 1 152.617 36.91 Q 151.716 37.187 150.627 37.257 A 11.745 11.745 0 0 1 149.88 37.28 A 8.711 8.711 0 0 1 147.793 37.046 A 5.501 5.501 0 0 1 144.52 34.88 Q 142.8 32.48 144.08 28.24 L 146.96 28.24 Q 148.96 24.16 145.28 24.16 Q 142.32 24.16 140.08 28 A 16.189 16.189 0 0 0 138.129 33.511 A 21.642 21.642 0 0 0 137.84 37.12 Z M 157.04 1.44 L 157.04 0 L 176.64 0 L 176.64 58.56 L 181.12 58.56 L 181.12 60 L 157.36 60 L 157.36 58.56 L 161.76 58.56 L 161.76 1.44 L 157.04 1.44 Z M 80.88 55.68 A 15.24 15.24 0 0 0 84.437 58.316 Q 89.035 60.8 96 60.8 A 29.826 29.826 0 0 0 103.525 59.93 Q 112.73 57.526 115.313 48.473 A 29.477 29.477 0 0 0 116.32 40.4 Q 116.32 30.64 111.44 25.88 A 14.481 14.481 0 0 0 107.349 23.105 Q 105.024 22.032 102.086 21.54 A 32.982 32.982 0 0 0 96.64 21.12 Q 86.72 21.12 81.24 26.28 A 15.934 15.934 0 0 0 79.619 28.054 Q 77.305 31.006 76.378 35.073 A 26.68 26.68 0 0 0 75.76 41 A 33.604 33.604 0 0 0 75.799 42.635 Q 75.952 45.776 76.705 48.396 A 16.555 16.555 0 0 0 80.88 55.68 Z M 100.96 44.24 L 100.96 37.44 Q 100.96 29.68 100.12 26.12 A 6.765 6.765 0 0 0 99.584 24.605 Q 98.589 22.648 96.436 22.564 A 5.013 5.013 0 0 0 96.24 22.56 A 5.036 5.036 0 0 0 94.992 22.707 A 3.618 3.618 0 0 0 93.4 23.56 A 3.901 3.901 0 0 0 92.674 24.496 Q 92.157 25.401 91.859 26.79 A 12.943 12.943 0 0 0 91.84 26.88 A 27.374 27.374 0 0 0 91.492 29.202 Q 91.236 31.504 91.156 34.723 A 125.944 125.944 0 0 0 91.12 37.84 L 91.12 44.08 A 231.231 231.231 0 0 0 91.138 47.105 Q 91.215 52.974 91.618 54.483 A 3.043 3.043 0 0 0 91.64 54.56 Q 92.16 56.32 92.72 57.44 A 3.09 3.09 0 0 0 94.935 59.228 A 5.314 5.314 0 0 0 96.16 59.36 Q 99.228 59.36 100.208 55.878 A 9.03 9.03 0 0 0 100.24 55.76 A 11.266 11.266 0 0 0 100.521 54.334 Q 100.861 51.935 100.938 47.187 A 183.465 183.465 0 0 0 100.96 44.24 Z M 208.8 49.12 L 208.8 31.68 A 14.565 14.565 0 0 0 208.576 29.057 Q 208.278 27.433 207.587 26.11 A 9.042 9.042 0 0 0 207.44 25.84 Q 206.135 23.538 203.653 23.444 A 5.641 5.641 0 0 0 203.44 23.44 A 3.131 3.131 0 0 0 200.711 24.938 Q 200.174 25.736 199.84 26.96 Q 198.88 30.48 198.88 39.28 L 198.88 43.44 Q 198.88 51.84 199.76 54.6 Q 200.64 57.36 203 57.36 Q 205.36 57.36 207.08 55.28 Q 208.365 53.726 208.69 51.056 A 16.051 16.051 0 0 0 208.8 49.12 Z" vector-effect="non-scaling-stroke"/></g></svg>