<svg width="47.97" height="21.408" viewBox="0 0 47.97 21.408" xmlns="http://www.w3.org/2000/svg"><g id="svgGroup" stroke-linecap="round" fill-rule="evenodd" font-size="9pt" stroke="#ffffff" stroke-width="0.05mm" fill="#FFDF00" style="stroke:#ffffff;stroke-width:0.05mm;fill:#FFDF00"><path d="M 46.434 16.408 A 12.43 12.43 0 0 0 46.641 16.017 Q 47.969 13.517 47.969 10.626 A 12.299 12.299 0 0 0 47.425 6.87 A 9.672 9.672 0 0 0 43.751 1.876 A 11.184 11.184 0 0 0 38.506 0.061 A 14.062 14.062 0 0 0 37.188 0.001 Q 32.953 0.001 28.507 3.65 A 31.169 31.169 0 0 0 25.235 6.798 A 39.37 39.37 0 0 1 24.295 7.903 A 48.198 48.198 0 0 1 23.673 8.595 Q 17.531 0.81 11.585 0.077 A 10.093 10.093 0 0 0 10.469 0.001 Q 4.3 0.001 1.536 5.001 A 12.43 12.43 0 0 0 1.329 5.392 Q 0.001 7.892 0.001 10.782 A 12.299 12.299 0 0 0 0.546 14.538 A 9.672 9.672 0 0 0 4.219 19.532 A 11.184 11.184 0 0 0 9.465 21.347 A 14.062 14.062 0 0 0 10.782 21.407 A 11.322 11.322 0 0 0 15.764 20.181 Q 17.536 19.319 19.338 17.85 A 29.775 29.775 0 0 0 22.344 15.001 Q 23.204 14.063 24.219 12.892 A 35.795 35.795 0 0 0 27.726 16.735 Q 32.656 21.35 37.501 21.407 Q 43.67 21.407 46.434 16.408 Z M 32.143 17.245 A 10.824 10.824 0 0 0 37.501 18.829 A 7.944 7.944 0 0 0 41.876 17.579 A 7.224 7.224 0 0 0 44.916 13.566 A 9.74 9.74 0 0 0 45.313 10.704 Q 45.313 8.907 44.61 7.267 A 9.453 9.453 0 0 0 44.505 7.025 Q 43.175 4.099 40.313 3.206 A 9.418 9.418 0 0 0 37.501 2.813 Q 35.391 2.813 33.126 4.063 A 8.925 8.925 0 0 0 33.12 4.067 Q 31.129 5.24 27.955 8.648 A 84.817 84.817 0 0 0 25.704 11.173 A 30.206 30.206 0 0 0 28.705 14.586 Q 30.414 16.237 32.143 17.245 Z M 7.658 18.202 A 9.418 9.418 0 0 0 10.469 18.595 A 7.755 7.755 0 0 0 12.376 18.354 A 9.413 9.413 0 0 0 14.532 17.501 Q 16.641 16.329 19.893 12.872 A 78.609 78.609 0 0 0 22.188 10.313 A 39.351 39.351 0 0 0 21.871 9.904 Q 16.17 2.655 10.469 2.579 Q 8.048 2.579 6.094 3.829 A 7.224 7.224 0 0 0 3.054 7.842 A 9.74 9.74 0 0 0 2.657 10.704 Q 2.657 12.501 3.36 14.142 A 9.453 9.453 0 0 0 3.466 14.383 Q 4.795 17.309 7.658 18.202 Z" vector-effect="non-scaling-stroke"/></g></svg>