<svg width="213" height="61" viewBox="0 0 213 61" fill="none" xmlns="http://www.w3.org/2000/svg">
<path fill-rule="evenodd" clip-rule="evenodd" d="M60.0636 30.0362C60.0636 13.4478 46.6177 0 30.0318 0C13.4452 0 0 13.4478 0 30.0362C0 46.6246 13.4452 60.0725 30.0318 60.0725C46.6177 60.0725 60.0636 46.6246 60.0636 30.0362ZM11.2673 25.6672C11.2673 25.1001 11.7316 24.6363 12.2986 24.6363H16.3397C16.9067 24.6363 17.371 25.1001 17.371 25.6672V43.7994C17.371 44.3665 16.9067 44.8303 16.3397 44.8303H12.2986C11.7316 44.8303 11.2673 44.3665 11.2673 43.7994V25.6672ZM17.8791 17.7376C17.8791 19.7164 16.2748 21.3209 14.2963 21.3209C12.3172 21.3209 10.7129 19.7164 10.7129 17.7376C10.7129 15.7582 12.3172 14.1549 14.2963 14.1549C16.2748 14.1549 17.8791 15.7582 17.8791 17.7376ZM51.0588 41.0776L49.4744 44.4933C49.2359 45.0075 48.6233 45.2244 48.1139 44.9757L43.1995 42.5728C41.0973 44.4506 38.5146 45.3866 35.1588 45.3866C27.028 45.3866 21.4847 38.6482 21.4847 29.632C21.4847 20.6151 27.028 14.1549 35.1588 14.1549C43.289 14.1549 48.8329 20.6613 48.8329 29.632C48.8329 31.487 48.6407 32.3592 48.3644 33.9476C48.2671 34.5062 47.7373 34.7615 47.2232 34.5218L43.1304 32.6103C42.6229 32.3737 42.2577 31.8036 42.307 31.15C42.3556 30.503 42.376 30.3774 42.376 29.6235C42.376 23.6475 39.5891 19.5446 35.1588 19.5446C30.7291 19.5446 27.9422 23.6475 27.9422 29.6235C27.9422 35.6488 30.7291 39.9963 35.1588 39.9963C37.6556 39.9963 39.6642 38.4902 40.7693 36.452C41.0901 35.8609 41.7958 35.6182 42.4037 35.9017L50.5579 39.7061C51.072 39.9458 51.2973 40.5627 51.0588 41.0776Z" fill="#312F3E"/>
<path fill-rule="evenodd" clip-rule="evenodd" d="M73.1079 23.725C74.0425 24.5204 75.2353 25.0772 76.3092 25.0772C77.5219 25.0772 78.119 24.6003 78.119 23.8247C78.119 23.0095 77.3826 22.7506 76.2492 22.273L74.5596 21.5576C73.2268 21.0205 71.954 19.9074 71.954 18.0169C71.954 15.8699 73.8635 14.1591 76.5675 14.1591C78.0589 14.1591 79.6302 14.7556 80.7437 15.8699L79.2524 17.719C78.3971 17.0624 77.6018 16.6845 76.5675 16.6845C75.5536 16.6845 74.917 17.123 74.917 17.8583C74.917 18.6543 75.7723 18.9318 76.8859 19.3896L78.5562 20.066C80.1269 20.7027 81.1209 21.757 81.1209 23.5862C81.1209 25.7344 79.3316 27.6033 76.2294 27.6033C74.5392 27.6033 72.7499 26.9665 71.4375 25.7344L73.1079 23.725Z" fill="#1E1446"/>
<path fill-rule="evenodd" clip-rule="evenodd" d="M83.4858 19.7876H82.1338V17.6196L83.645 17.5007L83.9831 14.8755H86.4091V17.5007H88.775V19.7876H86.4091V23.7452C86.4091 24.8589 86.9058 25.3161 87.6818 25.3161C88.0002 25.3161 88.3576 25.217 88.6158 25.1172L89.0735 27.2456C88.5564 27.4048 87.841 27.6036 86.886 27.6036C84.4402 27.6036 83.4858 26.0724 83.4858 23.7848V19.7876Z" fill="#1E1446"/>
<path fill-rule="evenodd" clip-rule="evenodd" d="M90.6064 17.5H93.5297V23.2477C93.5297 24.66 93.9075 25.1178 94.7622 25.1178C95.498 25.1178 95.9359 24.7988 96.5125 24.0233V17.5H99.4352V27.3651H97.0495L96.8308 25.9924H96.7708C95.9359 26.9866 95.0211 27.603 93.6691 27.603C91.5212 27.603 90.6064 26.0922 90.6064 23.6256V17.5Z" fill="#1E1446"/>
<path fill-rule="evenodd" clip-rule="evenodd" d="M105.579 17.2621C106.673 17.2621 107.328 17.6598 108.005 18.2959L107.885 16.7845V13.4229H110.808V27.3645H108.422L108.223 26.3901H108.144C107.448 27.0863 106.474 27.6036 105.519 27.6036C103.074 27.6036 101.482 25.6548 101.482 22.4325C101.482 19.2102 103.491 17.2621 105.579 17.2621ZM106.274 25.2169C106.911 25.2169 107.408 24.9784 107.885 24.3224V20.2843C107.368 19.8073 106.791 19.6487 106.255 19.6487C105.32 19.6487 104.485 20.524 104.485 22.3935C104.485 24.3422 105.141 25.2169 106.274 25.2169Z" fill="#1E1446"/>
<path fill-rule="evenodd" clip-rule="evenodd" d="M117.469 17.2621C120.272 17.2621 121.665 19.31 121.665 21.9952C121.665 22.5118 121.605 22.9894 121.545 23.2285H115.64C115.898 24.7201 116.892 25.3761 118.204 25.3761C118.94 25.3761 119.616 25.1574 120.332 24.7201L121.307 26.4892C120.292 27.1861 118.98 27.6036 117.806 27.6036C114.983 27.6036 112.815 25.6945 112.815 22.4325C112.815 19.2307 115.102 17.2621 117.469 17.2621ZM119.179 21.4185C119.179 20.2843 118.702 19.4896 117.528 19.4896C116.614 19.4896 115.818 20.1053 115.62 21.4185H119.179Z" fill="#1E1446"/>
<path fill-rule="evenodd" clip-rule="evenodd" d="M123.692 17.5002H126.079L126.278 18.7539H126.357C127.192 17.9586 128.186 17.2623 129.519 17.2623C131.666 17.2623 132.581 18.7732 132.581 21.2397V27.3653H129.658V21.6176C129.658 20.1855 129.279 19.7475 128.445 19.7475C127.709 19.7475 127.252 20.0863 126.616 20.7021V27.3653H123.692V17.5002Z" fill="#1E1446"/>
<path fill-rule="evenodd" clip-rule="evenodd" d="M135.464 19.7876H134.112V17.6196L135.624 17.5007L135.962 14.8755H138.388V17.5007H140.754V19.7876H138.388V23.7452C138.388 24.8589 138.884 25.3161 139.66 25.3161C139.978 25.3161 140.336 25.217 140.595 25.1172L141.052 27.2456C140.535 27.4048 139.819 27.6036 138.865 27.6036C136.419 27.6036 135.464 26.0724 135.464 23.7848V19.7876Z" fill="#1E1446"/>
<path fill-rule="evenodd" clip-rule="evenodd" d="M78.3557 41.7444H74.3987L73.6029 44.8268H70.6201L74.6768 31.8601H78.1965L82.2532 44.8268H79.1509L78.3557 41.7444ZM77.7612 39.4572L77.4627 38.2636C77.1047 36.9714 76.7467 35.4396 76.4086 34.0874H76.3293C76.0109 35.4594 75.6734 36.9714 75.3154 38.2636L74.9971 39.4572H77.7612Z" fill="#1E1446"/>
<path fill-rule="evenodd" clip-rule="evenodd" d="M87.9802 34.7241C89.1929 34.7241 90.2074 35.1813 90.8633 35.8583L89.5311 37.6677C89.0542 37.27 88.6163 37.091 88.1592 37.091C86.7471 37.091 85.8522 38.1843 85.8522 39.8951C85.8522 41.6054 86.7868 42.6993 88.0595 42.6993C88.7755 42.6993 89.3521 42.3611 89.829 41.9833L91.0026 43.8329C90.0482 44.6679 88.7953 45.0662 87.7214 45.0662C84.9777 45.0662 82.8496 43.1763 82.8496 39.8951C82.8496 36.614 85.2558 34.7241 87.9802 34.7241Z" fill="#1E1446"/>
<path fill-rule="evenodd" clip-rule="evenodd" d="M96.7097 34.7241C97.9224 34.7241 98.9369 35.1813 99.5928 35.8583L98.2606 37.6677C97.7837 37.27 97.3458 37.091 96.8887 37.091C95.4766 37.091 94.5817 38.1843 94.5817 39.8951C94.5817 41.6054 95.5163 42.6993 96.789 42.6993C97.505 42.6993 98.0816 42.3611 98.5591 41.9833L99.7321 43.8329C98.7777 44.6679 97.5248 45.0662 96.4509 45.0662C93.7072 45.0662 91.5791 43.1763 91.5791 39.8951C91.5791 36.614 93.9852 34.7241 96.7097 34.7241Z" fill="#1E1446"/>
<path fill-rule="evenodd" clip-rule="evenodd" d="M105.122 34.7241C107.607 34.7241 109.914 36.614 109.914 39.8951C109.914 43.1763 107.607 45.0662 105.122 45.0662C102.616 45.0662 100.31 43.1763 100.31 39.8951C100.31 36.614 102.616 34.7241 105.122 34.7241ZM105.122 42.6993C106.315 42.6993 106.932 41.6054 106.932 39.8951C106.932 38.1843 106.315 37.091 105.122 37.091C103.908 37.091 103.312 38.1843 103.312 39.8951C103.312 41.6054 103.908 42.6993 105.122 42.6993Z" fill="#1E1446"/>
<path fill-rule="evenodd" clip-rule="evenodd" d="M111.921 34.9629H114.307L114.506 36.2358H114.585C115.401 35.4206 116.276 34.725 117.568 34.725C118.96 34.725 119.795 35.3215 120.293 36.3758C121.167 35.4795 122.082 34.725 123.394 34.725C125.522 34.725 126.477 36.2358 126.477 38.7024V44.8274H123.553V39.0802C123.553 37.6475 123.176 37.2102 122.341 37.2102C121.843 37.2102 121.287 37.5286 120.651 38.1647V44.8274H117.727V39.0802C117.727 37.6475 117.349 37.2102 116.515 37.2102C116.037 37.2102 115.46 37.5286 114.844 38.1647V44.8274H111.921V34.9629Z" fill="#1E1446"/>
<path fill-rule="evenodd" clip-rule="evenodd" d="M128.962 34.9629H131.348L131.547 36.2358H131.626C132.442 35.4206 133.317 34.725 134.609 34.725C136.001 34.725 136.836 35.3215 137.334 36.3758C138.208 35.4795 139.123 34.725 140.436 34.725C142.563 34.725 143.518 36.2358 143.518 38.7024V44.8274H140.594V39.0802C140.594 37.6475 140.217 37.2102 139.382 37.2102C138.884 37.2102 138.328 37.5286 137.692 38.1647V44.8274H134.768V39.0802C134.768 37.6475 134.39 37.2102 133.556 37.2102C133.078 37.2102 132.501 37.5286 131.885 38.1647V44.8274H128.962V34.9629Z" fill="#1E1446"/>
<path fill-rule="evenodd" clip-rule="evenodd" d="M150.24 34.7241C152.725 34.7241 155.033 36.614 155.033 39.8951C155.033 43.1763 152.725 45.0662 150.24 45.0662C147.735 45.0662 145.428 43.1763 145.428 39.8951C145.428 36.614 147.735 34.7241 150.24 34.7241ZM150.24 42.6993C151.433 42.6993 152.05 41.6054 152.05 39.8951C152.05 38.1843 151.433 37.091 150.24 37.091C149.027 37.091 148.43 38.1843 148.43 39.8951C148.43 41.6054 149.027 42.6993 150.24 42.6993Z" fill="#1E1446"/>
<path fill-rule="evenodd" clip-rule="evenodd" d="M160.617 34.7241C161.711 34.7241 162.366 35.1218 163.043 35.7586L162.923 34.2466V30.8855H165.847V44.8271H163.46L163.261 43.8527H163.182C162.486 44.5484 161.512 45.0662 160.557 45.0662C158.112 45.0662 156.521 43.1174 156.521 39.8952C156.521 36.6729 158.529 34.7241 160.617 34.7241ZM161.313 42.6789C161.949 42.6789 162.446 42.4404 162.923 41.7844V37.747C162.407 37.27 161.83 37.1114 161.293 37.1114C160.359 37.1114 159.523 37.9867 159.523 39.8549C159.523 41.8043 160.18 42.6789 161.313 42.6789Z" fill="#1E1446"/>
<path fill-rule="evenodd" clip-rule="evenodd" d="M173.626 38.4829C173.566 37.6088 173.129 37.0507 172.075 37.0507C171.239 37.0507 170.404 37.3895 169.449 37.9458L168.416 36.0175C169.669 35.2618 171.08 34.7241 172.632 34.7241C175.157 34.7241 176.549 36.1568 176.549 39.1791V44.8277H174.163L173.944 43.8131H173.884C173.049 44.549 172.114 45.0656 171.001 45.0656C169.211 45.0656 168.078 43.753 168.078 42.0824C168.078 40.0147 169.728 38.8805 173.626 38.4829ZM171.995 42.799C172.671 42.799 173.109 42.4807 173.626 41.9634V40.2327C171.537 40.5121 170.861 41.108 170.861 41.8643C170.861 42.5005 171.299 42.799 171.995 42.799Z" fill="#1E1446"/>
<path fill-rule="evenodd" clip-rule="evenodd" d="M179.45 37.2503H178.098V35.0828L179.609 34.9627L179.946 32.3381H182.372V34.9627H184.739V37.2503H182.372V41.2078C182.372 42.321 182.87 42.7787 183.645 42.7787C183.964 42.7787 184.321 42.6796 184.58 42.5805L185.037 44.7083C184.52 44.8675 183.805 45.0663 182.85 45.0663C180.405 45.0663 179.45 43.535 179.45 41.2475V37.2503Z" fill="#1E1446"/>
<path fill-rule="evenodd" clip-rule="evenodd" d="M186.429 31.9798C186.429 31.0847 187.144 30.4678 188.118 30.4678C189.113 30.4678 189.81 31.0847 189.81 31.9798C189.81 32.8749 189.113 33.511 188.118 33.511C187.144 33.511 186.429 32.8749 186.429 31.9798ZM186.667 44.8275H189.59V34.963H186.667V44.8275Z" fill="#1E1446"/>
<path fill-rule="evenodd" clip-rule="evenodd" d="M196.39 34.7241C198.876 34.7241 201.183 36.614 201.183 39.8951C201.183 43.1763 198.876 45.0662 196.39 45.0662C193.885 45.0662 191.578 43.1763 191.578 39.8951C191.578 36.614 193.885 34.7241 196.39 34.7241ZM196.39 42.6993C197.583 42.6993 198.2 41.6054 198.2 39.8951C198.2 38.1843 197.583 37.091 196.39 37.091C195.177 37.091 194.58 38.1843 194.58 39.8951C194.58 41.6054 195.177 42.6993 196.39 42.6993Z" fill="#1E1446"/>
<mask id="mask0" style="mask-type:alpha" maskUnits="userSpaceOnUse" x="203" y="34" width="10" height="11">
<path fill-rule="evenodd" clip-rule="evenodd" d="M203.189 34.7252H212.078V44.8276H203.189V34.7252Z" fill="white"/>
</mask>
<g mask="url(#mask0)">
<path fill-rule="evenodd" clip-rule="evenodd" d="M203.189 34.9631H205.576L205.775 36.2162H205.854C206.689 35.4209 207.683 34.7252 209.016 34.7252C211.163 34.7252 212.078 36.236 212.078 38.7026V44.8276H209.155V39.0805C209.155 37.6477 208.777 37.2104 207.941 37.2104C207.206 37.2104 206.749 37.5492 206.112 38.165V44.8276H203.189V34.9631Z" fill="#1E1446"/>
</g>
</svg>
