<svg width="317" height="100" viewBox="0 0 517 100" xmlns="http://www.w3.org/2000/svg"><g id="svgGroup" stroke-linecap="round" fill-rule="evenodd" font-size="9pt" stroke="#fff" stroke-width="0.25mm" fill="#fff" style="stroke:#fff;stroke-width:0.25mm;fill:white"><path d="M 25.5 6.9 L 41.8 54.8 L 50.1 26 L 44.1 6.9 L 38.4 6.9 L 38.4 5 L 69.4 5 L 69.4 6.9 L 63.5 6.9 L 78.4 54.2 L 90.4 6.9 L 80.3 6.9 L 80.3 5 L 100.3 5 L 100.3 6.9 L 93.7 6.9 L 75.3 76 L 66.4 76 L 51.6 30.8 L 38.6 76 L 29.9 76 L 4.7 6.9 L 0 6.9 L 0 5 L 32.5 5 L 32.5 6.9 L 25.5 6.9 Z M 517 75 L 489.2 75 L 489.2 73.2 L 493.8 73.2 L 482.5 50 L 480.6 50.5 L 480.6 73.2 L 485.2 73.2 L 485.2 75 L 456.5 75 L 456.5 73.2 L 462 73.2 L 462 1.8 L 456.1 1.8 L 456.1 0 L 480.6 0 L 480.6 48.5 L 482.2 47.9 L 504.7 29.2 L 495.3 29.2 L 495.3 27.4 L 515 27.4 L 515 29.2 L 508 29.2 L 496.1 39.3 L 513.4 73.2 L 517 73.2 L 517 75 Z M 345.3 29.2 L 341.2 29.2 L 341.2 27.4 L 370.2 27.4 L 370.2 29.2 L 364.8 29.2 L 375.7 62.4 L 387.3 29.2 L 380.6 29.2 L 380.6 27.4 L 394.7 27.4 L 394.7 29.2 L 389.7 29.2 L 371 83.1 A 60.584 60.584 0 0 1 369.08 87.941 Q 366.547 93.555 363.6 96.25 A 14.199 14.199 0 0 1 354.013 99.995 A 18.272 18.272 0 0 1 353.6 100 A 20.841 20.841 0 0 1 349.879 99.688 Q 346.545 99.082 344.3 97.3 A 9.233 9.233 0 0 1 341.98 94.657 A 8.43 8.43 0 0 1 340.9 90.4 Q 340.9 87.36 342.053 85.367 A 6.594 6.594 0 0 1 343.1 84 A 7.383 7.383 0 0 1 347.289 81.921 A 10.341 10.341 0 0 1 348.9 81.8 Q 356.262 81.8 357.094 87.228 A 9.717 9.717 0 0 1 357.2 88.7 Q 357.2 90.2 356.6 92.3 L 353.1 92.3 Q 352.3 94.6 352.9 96.1 A 2.226 2.226 0 0 0 354.485 97.468 Q 354.977 97.6 355.6 97.6 A 8.127 8.127 0 0 0 360.676 95.793 Q 361.801 94.923 362.833 93.634 A 16.438 16.438 0 0 0 362.9 93.55 Q 366.1 89.5 369 81.2 L 371.2 75 L 362.4 75 L 345.3 29.2 Z M 395.1 29.2 L 395.1 27.4 L 419.2 27.4 L 419.2 36.6 Q 420.8 32 424.1 29.2 A 10.305 10.305 0 0 1 427.416 27.361 Q 428.924 26.836 430.782 26.597 A 26.145 26.145 0 0 1 434.1 26.4 Q 446.339 26.4 448.914 36.811 A 26.267 26.267 0 0 1 449.6 43.1 L 449.6 73.2 L 455.2 73.2 L 455.2 75 L 426.9 75 L 426.9 73.2 L 431 73.2 L 431 40.7 A 70.569 70.569 0 0 0 430.962 38.278 Q 430.846 34.936 430.383 33.44 A 4.106 4.106 0 0 0 430.2 32.95 A 2.993 2.993 0 0 0 429.366 31.842 Q 428.571 31.2 427.3 31.2 Q 424.737 31.2 422.655 33.895 A 13.992 13.992 0 0 0 421.65 35.4 Q 419.2 39.6 419.2 45.6 L 419.2 73.2 L 423.5 73.2 L 423.5 75 L 395.1 75 L 395.1 73.2 L 400.6 73.2 L 400.6 29.2 L 395.1 29.2 Z M 288.2 7.2 L 288.2 5 L 324.2 5 L 324.2 7.2 L 313.6 7.2 L 313.6 72.8 L 317.2 72.8 A 22.497 22.497 0 0 0 323.09 72.069 A 16.462 16.462 0 0 0 330.75 67.6 Q 335.8 62.4 341 51.6 L 343.1 51.6 L 341.2 75 L 288.2 75 L 288.2 72.8 L 294.1 72.8 L 294.1 7.2 L 288.2 7.2 Z M 284.5 75 L 262.3 75 L 261.2 68 Q 257.8 76 247.4 76 A 19.043 19.043 0 0 1 241.498 75.13 A 15.077 15.077 0 0 1 234.05 69.8 A 19.924 19.924 0 0 1 231.019 63.891 Q 230.106 61.133 229.678 57.752 A 51.5 51.5 0 0 1 229.3 51.3 Q 229.3 28.556 245.82 26.587 A 27.721 27.721 0 0 1 249.1 26.4 A 24.402 24.402 0 0 1 253.125 26.706 Q 258.6 27.625 260.7 31.3 L 260.7 1.8 L 254.6 1.8 L 254.6 0 L 279.6 0 L 279.6 73.2 L 284.5 73.2 L 284.5 75 Z M 172.3 46.4 L 172.3 73.2 L 179.4 73.2 L 179.4 75 L 148.2 75 L 148.2 73.2 L 153.7 73.2 L 153.7 29.2 L 148.2 29.2 L 148.2 27.4 L 172.3 27.4 L 172.3 37 A 15.784 15.784 0 0 1 173.897 32.987 A 12.523 12.523 0 0 1 177.3 29.15 Q 181 26.4 185.7 26.4 A 13.615 13.615 0 0 1 189.105 26.804 A 9.971 9.971 0 0 1 193.35 29.05 A 8.62 8.62 0 0 1 196.012 33.734 A 13.017 13.017 0 0 1 196.3 36.55 Q 196.3 39.837 195.289 42.091 A 8.008 8.008 0 0 1 194.1 44 Q 192.132 46.326 188.284 46.571 A 14.681 14.681 0 0 1 187.35 46.6 A 10.889 10.889 0 0 1 184.741 46.307 A 6.877 6.877 0 0 1 180.65 43.6 Q 178.5 40.6 180.1 35.3 L 183.7 35.3 A 12.849 12.849 0 0 0 184.106 34.391 Q 185.624 30.566 182.284 30.232 A 6.888 6.888 0 0 0 181.6 30.2 A 5.806 5.806 0 0 0 177.948 31.535 Q 176.423 32.731 175.1 35 A 20.236 20.236 0 0 0 172.662 41.889 A 27.053 27.053 0 0 0 172.3 46.4 Z M 196.3 1.8 L 196.3 0 L 220.8 0 L 220.8 73.2 L 226.4 73.2 L 226.4 75 L 196.7 75 L 196.7 73.2 L 202.2 73.2 L 202.2 1.8 L 196.3 1.8 Z M 120 76 Q 107.5 76 101.1 69.6 Q 94.7 63.2 94.7 51.25 A 33.35 33.35 0 0 1 95.473 43.842 Q 96.631 38.758 99.524 35.067 A 19.918 19.918 0 0 1 101.55 32.85 A 22.467 22.467 0 0 1 111.012 27.635 Q 114.489 26.651 118.64 26.451 A 44.929 44.929 0 0 1 120.8 26.4 A 41.227 41.227 0 0 1 127.607 26.924 Q 131.28 27.541 134.187 28.881 A 18.101 18.101 0 0 1 139.3 32.35 A 18.477 18.477 0 0 1 143.827 39.721 Q 144.835 42.657 145.197 46.255 A 42.42 42.42 0 0 1 145.4 50.5 Q 145.4 70.735 129.406 74.913 A 37.282 37.282 0 0 1 120 76 Z M 126.2 55.3 L 126.2 46.8 Q 126.2 37.1 125.15 32.65 A 8.456 8.456 0 0 0 124.481 30.756 Q 123.236 28.31 120.545 28.205 A 6.267 6.267 0 0 0 120.3 28.2 A 6.295 6.295 0 0 0 118.74 28.383 A 4.523 4.523 0 0 0 116.75 29.45 Q 115.4 30.7 114.8 33.6 Q 114.102 37.089 113.945 43.404 A 157.43 157.43 0 0 0 113.9 47.3 L 113.9 55.1 A 289.038 289.038 0 0 0 113.923 58.882 Q 114.019 66.218 114.523 68.104 A 3.805 3.805 0 0 0 114.55 68.2 A 31.804 31.804 0 0 0 115.034 69.708 Q 115.457 70.914 115.9 71.8 A 3.863 3.863 0 0 0 118.669 74.036 A 6.643 6.643 0 0 0 120.2 74.2 A 5.032 5.032 0 0 0 122.585 73.656 Q 124.468 72.661 125.26 69.848 A 11.288 11.288 0 0 0 125.3 69.7 Q 126.042 67.062 126.172 58.984 A 229.329 229.329 0 0 0 126.2 55.3 Z M 261 61.4 L 261 39.6 A 18.206 18.206 0 0 0 260.719 36.321 Q 260.309 34.081 259.3 32.3 A 6.481 6.481 0 0 0 257.925 30.577 Q 256.453 29.3 254.3 29.3 Q 251.341 29.3 250.07 32.839 A 11.52 11.52 0 0 0 249.8 33.7 Q 248.6 38.1 248.6 49.1 L 248.6 54.3 A 159.25 159.25 0 0 0 248.653 58.556 Q 248.816 64.621 249.483 67.455 A 10.714 10.714 0 0 0 249.7 68.25 Q 250.8 71.7 253.75 71.7 A 6.129 6.129 0 0 0 258.016 69.984 A 8.882 8.882 0 0 0 258.85 69.1 A 8.273 8.273 0 0 0 260.281 66.461 Q 260.686 65.273 260.862 63.82 A 20.064 20.064 0 0 0 261 61.4 Z" vector-effect="non-scaling-stroke"/></g></svg>